<svg width="20" height="20" viewBox="0 0 20 20" fill="none" xmlns="http://www.w3.org/2000/svg">
<path d="M9.5833 2.7085C8.47985 2.70857 7.39264 2.97424 6.41351 3.48306C5.43439 3.99189 4.59212 4.72892 3.95788 5.63187C3.32364 6.53483 2.91606 7.57718 2.76959 8.67086C2.62311 9.76454 2.74203 10.8774 3.11631 11.9154C3.49059 12.9535 4.10923 13.8862 4.91995 14.6347C5.73067 15.3832 6.70966 15.9256 7.7742 16.2161C8.83873 16.5065 9.95754 16.5364 11.0361 16.3033C12.1146 16.0702 13.1212 15.581 13.9708 14.8768L16.2025 17.1085C16.3209 17.2189 16.4776 17.279 16.6396 17.2761C16.8015 17.2733 16.956 17.2077 17.0705 16.9932C17.185 16.9787 17.2506 16.8242 17.2534 16.6623C17.2563 16.5003 17.1962 16.3436 17.0858 16.2252L14.8566 13.9952C15.6959 12.9921 16.2316 11.7704 16.4009 10.4735C16.5703 9.17657 16.3661 7.85829 15.8125 6.67334C15.2589 5.48839 14.3787 4.48595 13.2753 3.78367C12.172 3.08138 10.8912 2.7084 9.5833 2.7085Z" fill="currentColor"/>
</svg>
